<svg aria-hidden="true" style="position: absolute; width: 0; height: 0; overflow: hidden;" version="1.1" xmlns="http://www.w3.org/2000/svg" xmlns:xlink="http://www.w3.org/1999/xlink">
<defs>
<symbol id="icon-left-arrow" viewBox="0 0 32 32">

<path  d="M18.072 22.201l1.347-1.447-4.426-4.758 4.426-4.755-1.347-1.448-5.773 6.203 5.773 6.205z"></path>
</symbol>
<symbol id="icon-lines" viewBox="0 0 364 32">
<path fill="#18cfab" style="fill: var(--color3, #18cfab)" d="M8 11.983v-4h302.173v4h-302.173z"></path>
<path fill="#18cfab" style="fill: var(--color3, #18cfab)" d="M57.826 27.978v-3.992h302.173v3.992h-302.173z"></path>
</symbol>
<symbol id="icon-plus" viewBox="0 0 30 32">
<path fill="#fff" style="fill: var(--color5, #fff)" d="M29.176 13.171h-10.353v-10.352c0-0.519-0.421-0.942-0.941-0.942h-5.647c-0.52 0-0.941 0.423-0.941 0.942v10.352h-10.353c-0.52 0-0.941 0.423-0.941 0.943v5.646c0 0.519 0.421 0.941 0.941 0.941h10.353v10.354c0 0.519 0.422 0.942 0.941 0.942h5.647c0.52 0 0.941-0.423 0.941-0.942v-10.354h10.353c0.52 0 0.941-0.422 0.941-0.941v-5.646c0-0.52-0.422-0.943-0.941-0.943z"></path>
</symbol>
<symbol id="icon-right-arrow" viewBox="0 0 32 32">
<path fill="#18cfab" style="fill: var(--color3, #18cfab)" d="M1.313 2.061h31.719v32h-31.719v-32z"></path>
<path fill="#fff" style="fill: var(--color5, #fff)" d="M14.96 11.858l-1.347 1.448 4.426 4.756-4.426 4.757 1.347 1.448 5.773-6.205-5.773-6.203z"></path>
</symbol>
<symbol id="icon-triangular-pointer" viewBox="0 0 62 32">
<path fill="#18cfab" style="fill: var(--color3, #18cfab)" d="M31.256 30.642l-28.84-28.868h57.679l-28.839 28.868z"></path>
</symbol>
<symbol id="icon-chain" viewBox="0 0 32 32">
<path d="M29.681 5.82l-3.879-3.919c-1.716-1.729-4.505-1.739-6.225-0.018l-4.304 4.288c-1.723 1.72-1.73 4.518-0.019 6.247l2.46-2.414c-0.249-0.769 0.057-1.65 0.666-2.26l2.738-2.726c0.867-0.865 2.259-0.859 3.115 0.005l2.329 2.355c0.857 0.864 0.853 2.259-0.009 3.126l-2.738 2.729c-0.579 0.577-1.53 0.894-2.268 0.691l-2.409 2.416c1.714 1.734 4.5 1.74 6.225 0.020l4.299-4.286c1.728-1.721 1.734-4.521 0.020-6.253zM13.922 21.529c0.204 0.752-0.123 1.724-0.715 2.317l-2.557 2.555c-0.878 0.873-2.296 0.871-3.169-0.013l-2.376-2.393c-0.871-0.88-0.865-2.313 0.011-3.185l2.56-2.554c0.624-0.622 1.52-0.933 2.302-0.67l2.467-2.501c-1.746-1.761-4.589-1.769-6.342-0.018l-4.15 4.141c-1.756 1.754-1.764 4.605-0.019 6.367l3.95 3.996c1.745 1.755 4.585 1.769 6.342 0.018l4.15-4.142c1.754-1.756 1.762-4.602 0.019-6.367l-2.473 2.448zM13.35 20.401c-0.592 0.595-1.544 0.593-2.125-0.011-0.584-0.605-0.58-1.574 0.009-2.172l7.093-7.208c0.589-0.595 1.538-0.593 2.121 0.006 0.587 0.601 0.584 1.572-0.007 2.174l-7.091 7.211z"></path>
</symbol>
<symbol id="icon-cube" viewBox="0 0 35 32">
<path   d="M0 0h34.909v32h-34.909v-32z"></path>
</symbol>
<symbol id="icon-search" viewBox="0 0 35 32">
<path d="M1.454 0h33.745v32h-33.745v-32z"></path>
</symbol>
<symbol id="icon-quotes" viewBox="0 0 45 32">
<path fill="#18cfab" style="fill: var(--color1, #18cfab)" d="M9.97 12.287c5.482 0 9.926 4.411 9.926 9.854 0 5.441-4.444 9.852-9.926 9.852s-9.926-4.411-9.926-9.852l-0.044-1.408c0-10.883 8.888-19.706 19.852-19.706v5.63c-3.788 0-7.348 1.465-10.027 4.124-0.516 0.511-0.986 1.057-1.41 1.63 0.507-0.078 1.026-0.122 1.555-0.122zM35.494 12.287c5.482 0 9.926 4.411 9.926 9.854 0 5.441-4.444 9.852-9.926 9.852s-9.926-4.411-9.926-9.852l-0.044-1.408c0-10.883 8.888-19.706 19.852-19.706v5.63c-3.787 0-7.348 1.465-10.027 4.124-0.516 0.511-0.986 1.057-1.41 1.63 0.507-0.078 1.026-0.122 1.556-0.122z"></path>
</symbol>
<symbol id="icon-decrease" viewBox="0 0 35 32">
<path fill="#f8fcfe" style="fill: var(--color1, #f8fcfe)" d="M2.037 29.091c0 0.482 0.391 0.873 0.873 0.873h7.855c0.482 0 0.873-0.391 0.873-0.873s-0.391-0.873-0.873-0.873h-6.982v-6.982c0-0.482-0.391-0.873-0.873-0.873s-0.873 0.391-0.873 0.873v7.855zM11.019 19.747l-8.727 8.727 1.234 1.234 8.727-8.727-1.234-1.234z"></path>
<path fill="#f8fcfe" style="fill: var(--color1, #f8fcfe)" d="M2.909 2.037c-0.482 0-0.873 0.391-0.872 0.873l0.003 7.855c0 0.482 0.391 0.873 0.873 0.872s0.873-0.391 0.872-0.873l-0.003-6.982 6.982-0.003c0.482-0 0.873-0.391 0.872-0.873s-0.391-0.873-0.873-0.872l-7.855 0.003zM12.257 11.016l-8.731-8.724-1.234 1.235 8.731 8.724 1.234-1.235z"></path>
<path fill="#f8fcfe" style="fill: var(--color1, #f8fcfe)" d="M32.873 2.909c0-0.482-0.391-0.873-0.873-0.873h-7.855c-0.482 0-0.873 0.391-0.873 0.873s0.391 0.873 0.873 0.873h6.982v6.982c0 0.482 0.391 0.873 0.873 0.873s0.873-0.391 0.873-0.873v-7.855zM23.89 12.253l8.727-8.727-1.234-1.234-8.727 8.727 1.234 1.234z"></path>
<path fill="#f8fcfe" style="fill: var(--color1, #f8fcfe)" d="M32.086 29.884c0.482-0.004 0.869-0.399 0.865-0.881l-0.071-7.854c-0.004-0.482-0.399-0.869-0.881-0.865s-0.869 0.399-0.865 0.881l0.063 6.982-6.981 0.063c-0.482 0.004-0.869 0.399-0.865 0.881s0.399 0.869 0.881 0.865l7.854-0.071zM22.661 20.986l8.806 8.648 1.223-1.245-8.806-8.648-1.223 1.245z"></path>
</symbol>
<symbol id="icon-increase" viewBox="0 0 32 32">
<path fill="none" stroke="#fff" style="stroke: var(--color1, #fff)" stroke-linejoin="miter" stroke-linecap="butt" stroke-miterlimit="4" stroke-width="3.2" d="M17.192 18.133l11.608 10.667"></path>
<path fill="none" stroke="#fff" style="stroke: var(--color1, #fff)" stroke-linejoin="miter" stroke-linecap="butt" stroke-miterlimit="4" stroke-width="3.2" d="M20.8 11.2c0 5.302-4.298 9.6-9.6 9.6s-9.6-4.298-9.6-9.6c0-5.302 4.298-9.6 9.6-9.6s9.6 4.298 9.6 9.6z"></path>
</symbol>
</defs>
</svg>
